<?xml version="1.0" encoding="UTF-8" standalone="no"?>
<svg width="104px" height="90px" viewBox="0 0 104 90" version="1.1" xmlns="http://www.w3.org/2000/svg" xmlns:xlink="http://www.w3.org/1999/xlink" xmlns:sketch="http://www.bohemiancoding.com/sketch/ns">
    <title>Unsplash</title>
    <description>Created with Sketch (http://www.bohemiancoding.com/sketch)</description>
    <defs></defs>
    <g id="Page-1" stroke="none" stroke-width="1" fill="none" fill-rule="evenodd" sketch:type="MSPage">
        <g id="365-photos-later" sketch:type="MSLayerGroup" transform="translate(1.000000, 0.000000)" fill="#000000">
            <path d="M51.2,36.1 C42.7,36.1 35.7,43 35.7,51.6 C35.7,60.2 42.7,67 51.2,67 C59.7,67 66.7,60.1 66.7,51.5 C66.7,42.9 59.8,36.1 51.2,36.1 L51.2,36.1 Z M89,13.7 L77,13.7 L74.3,6.4 C72.9,2.9 68.7,0 65,0 L37.5,0 C33.7,0 29.6,2.9 28.2,6.4 L25.5,13.7 L13.5,13.7 C5.9,13.7 -0.2,19.9 -0.2,27.4 L-0.2,75.5 C-0.2,83.1 6,89.2 13.5,89.2 L89,89.2 C96.6,89.2 102.7,83 102.7,75.5 L102.7,27.5 C102.8,19.9 96.6,13.7 89,13.7 L89,13.7 Z M51.2,75.6 C37.9,75.6 27.2,64.8 27.2,51.6 C27.2,38.4 38,27.6 51.2,27.6 C64.5,27.6 75.2,38.4 75.2,51.6 C75.2,64.8 64.5,75.6 51.2,75.6 L51.2,75.6 Z" id="Shape" sketch:type="MSShapeGroup"></path>
        </g>
    </g>
</svg>